<?xml version="1.0" encoding="utf-8"?>
<!-- Generator: Adobe Illustrator 27.8.0, SVG Export Plug-In . SVG Version: 6.00 Build 0)  -->
<svg version="1.1" id="Layer_1" xmlns="http://www.w3.org/2000/svg" xmlns:xlink="http://www.w3.org/1999/xlink" x="0px" y="0px"
	 viewBox="0 0 512 512" style="enable-background:new 0 0 512 512;" xml:space="preserve">
<style type="text/css">
	.st0{fill:#999999;}
	.st1{fill:#10B981;enable-background:new    ;}
</style>
<path class="st0" d="M256,512c97.2,0,176-78.8,176-176s-78.8-176-176-176S80,238.8,80,336S158.8,512,256,512z M286.8,286.5
	c1.4,2.8,4,4.7,7,5.1l50.1,7.3c7.7,1.1,10.7,10.5,5.2,16l-36.3,35.4c-2.2,2.2-3.2,5.2-2.7,8.3l8.6,49.9c1.3,7.6-6.7,13.5-13.6,9.9
	l-44.8-23.6c-2.7-1.4-6-1.4-8.7,0l-44.8,23.6c-6.9,3.6-14.9-2.2-13.6-9.9l8.6-49.9c0.5-3-0.5-6.1-2.7-8.3l-36.3-35.4
	c-5.6-5.4-2.5-14.8,5.2-16l50.1-7.3c3-0.4,5.7-2.4,7-5.1l22.4-45.4c3.4-7,13.3-7,16.8,0l22.4,45.4H286.8z"/>
<path class="st1" d="M106.4,201.5c7.5-7.8,15.6-14.9,24.2-21.4L38.5,42h103.4l61.6,102.7c10.9-2.8,22.2-4.8,33.8-5.9l-68-113.3
	c-5.8-9.6-16.2-15.5-27.4-15.5H24.6C11,10,0,21,0,34.6c0,4.8,1.4,9.6,4.1,13.6L106.4,201.5z"/>
<path class="st1" d="M507.9,48.2c2.7-4,4.1-8.8,4.1-13.6C512,21,501,10,487.4,10H370.1c-11.2,0-21.6,5.9-27.4,15.5l-68,113.3
	c11.6,1.1,22.9,3.1,33.8,5.9L370.1,42h103.4l-92.1,138.1c8.6,6.5,16.7,13.6,24.2,21.4L507.9,48.2z"/>
</svg>
