<?xml version="1.0" standalone="no"?>
<!DOCTYPE svg PUBLIC "-//W3C//DTD SVG 20010904//EN"
 "http://www.w3.org/TR/2001/REC-SVG-20010904/DTD/svg10.dtd">
<svg version="1.0" xmlns="http://www.w3.org/2000/svg"
 width="2134.000000pt" height="2134.000000pt" viewBox="0 0 2134.000000 2134.000000"
 preserveAspectRatio="xMidYMid meet">
<metadata>
Created by potrace 1.14, written by Peter Selinger 2001-2017
</metadata>
<g transform="translate(0.000000,2134.000000) scale(0.100000,-0.100000)"
fill="#000000" stroke="none">
<path d="M950 21333 c-303 -30 -568 -173 -736 -397 -73 -97 -97 -139 -139
-241 -105 -255 -98 -562 19 -819 19 -40 560 -861 1267 -1919 679 -1017 1239
-1856 1244 -1866 6 -9 28 -43 50 -75 22 -32 45 -66 50 -75 34 -55 131 -197
137 -199 5 -2 8 -8 8 -13 0 -5 23 -42 50 -82 28 -40 55 -79 60 -87 6 -8 56
-84 113 -169 56 -84 107 -160 112 -168 6 -8 126 -189 267 -402 142 -212 262
-393 268 -401 130 -192 630 -945 630 -950 0 -4 9 -15 20 -25 11 -10 20 -24 20
-32 0 -7 4 -13 8 -13 5 0 14 -11 20 -25 12 -25 13 -25 125 87 186 185 333 321
502 463 44 37 91 77 105 89 14 11 79 63 145 115 66 52 126 100 133 107 12 10
-9 47 -114 205 -71 107 -131 196 -135 199 -3 3 -8 10 -10 15 -5 13 -302 459
-310 465 -3 3 -8 10 -10 15 -2 6 -729 1097 -1615 2425 -885 1328 -1614 2421
-1618 2428 -6 10 423 12 2145 10 l2152 -3 133 -220 c73 -121 139 -231 147
-245 7 -14 366 -612 797 -1330 431 -718 790 -1317 799 -1333 9 -15 93 -154
186 -309 94 -156 175 -291 180 -300 6 -10 80 -135 165 -278 130 -219 158 -260
175 -256 11 2 97 22 190 44 94 23 186 44 205 47 19 3 42 8 50 10 18 5 38 9
220 41 252 44 555 86 692 95 43 3 44 -4 -34 122 -26 43 -48 80 -48 82 0 2 -23
40 -51 85 -28 45 -59 96 -68 114 -10 17 -172 288 -361 601 -188 314 -351 584
-360 600 -10 17 -172 287 -360 600 -188 314 -350 584 -360 600 -10 17 -36 61
-60 99 -23 38 -50 83 -60 100 -9 17 -172 288 -360 601 -189 314 -351 584 -360
600 -9 17 -50 84 -90 150 -40 66 -81 134 -90 150 -93 163 -190 313 -249 383
-218 260 -502 420 -836 473 -63 10 -630 13 -2605 13 -1389 1 -2536 0 -2550 -1z"/>
<path d="M15367 21334 c-1 -1 -38 -4 -83 -8 -277 -21 -574 -159 -788 -366
-115 -111 -166 -182 -346 -485 -79 -132 -153 -256 -165 -275 -30 -47 -278
-461 -288 -480 -4 -8 -15 -27 -25 -42 -21 -34 -743 -1236 -757 -1261 -5 -10
-59 -99 -120 -199 -60 -100 -114 -190 -120 -200 -5 -10 -59 -100 -120 -200
-60 -100 -114 -191 -120 -201 -5 -9 -46 -77 -90 -149 -44 -72 -83 -139 -88
-147 -4 -9 -15 -28 -25 -43 -22 -36 -500 -829 -528 -877 -12 -20 -74 -123
-138 -230 -64 -107 -113 -198 -109 -202 5 -4 49 -10 98 -14 50 -3 97 -8 105
-10 8 -2 38 -6 65 -10 87 -10 209 -26 240 -31 17 -3 41 -7 55 -9 14 -2 52 -8
85 -14 33 -6 71 -12 85 -15 22 -3 112 -20 175 -32 49 -9 260 -58 369 -85 65
-16 120 -28 122 -27 1 2 53 87 113 188 61 102 115 192 120 200 35 57 200 331
216 359 12 20 32 54 46 76 14 22 29 47 33 55 3 8 21 39 39 68 85 141 654 1087
667 1110 26 46 62 105 97 159 18 28 33 54 33 57 0 4 77 132 130 216 5 8 25 42
45 75 71 121 230 386 356 594 54 91 99 166 99 168 0 2 15 27 33 56 18 28 38
61 44 72 32 54 188 314 208 345 12 19 82 135 155 258 l132 222 2149 0 c1182 0
2149 -2 2149 -5 0 -3 -499 -755 -1110 -1671 -610 -917 -1110 -1668 -1110
-1670 0 -2 -7 -12 -14 -21 -22 -26 -1577 -2364 -1582 -2378 -3 -7 14 -28 38
-46 190 -149 408 -329 448 -369 3 -3 48 -43 100 -90 52 -46 164 -152 248 -235
84 -82 157 -151 162 -153 13 -5 4301 6431 4338 6511 33 71 67 171 76 228 3 19
8 45 11 59 8 37 9 238 1 290 -71 459 -413 801 -876 876 -35 6 -5076 13 -5083
8z"/>
<path d="M10368 14665 c-2 -2 -59 -6 -128 -9 -69 -4 -138 -8 -155 -10 -16 -2
-66 -7 -110 -11 -100 -8 -137 -12 -200 -20 -58 -7 -236 -33 -280 -40 -56 -9
-90 -15 -111 -19 -12 -2 -37 -7 -55 -10 -65 -11 -282 -56 -344 -72 -11 -3 -31
-7 -45 -10 -229 -44 -897 -266 -1145 -379 -16 -7 -70 -31 -120 -53 -175 -77
-501 -242 -620 -314 -16 -10 -39 -22 -50 -27 -11 -6 -48 -27 -82 -48 -34 -21
-84 -51 -110 -67 -105 -64 -377 -248 -509 -346 -307 -228 -542 -431 -838 -726
-834 -831 -1484 -1916 -1822 -3044 -62 -208 -159 -608 -189 -780 -25 -146 -44
-263 -50 -309 -4 -30 -8 -62 -10 -72 -2 -10 -6 -46 -10 -81 -3 -35 -8 -74 -10
-88 -2 -14 -7 -56 -10 -95 -4 -38 -8 -88 -10 -110 -26 -283 -26 -918 0 -1185
3 -25 7 -70 10 -100 13 -147 18 -187 41 -345 47 -318 86 -519 154 -780 64
-250 183 -630 232 -745 11 -25 21 -52 23 -60 4 -20 122 -303 171 -410 112
-248 338 -666 473 -877 137 -213 445 -645 480 -673 3 -3 32 -38 64 -78 51 -63
147 -174 266 -306 123 -136 471 -474 595 -577 16 -13 34 -29 40 -34 6 -6 49
-42 96 -80 47 -38 87 -72 90 -75 3 -3 23 -19 45 -36 22 -16 45 -34 52 -40 6
-6 48 -37 93 -70 45 -32 100 -73 123 -90 52 -38 357 -244 362 -244 2 0 46 -26
97 -58 111 -69 220 -132 343 -197 50 -26 96 -52 103 -58 6 -5 12 -7 12 -3 0 3
18 -5 40 -19 22 -14 41 -25 43 -25 3 0 67 -29 143 -65 180 -85 163 -77 287
-129 244 -103 575 -219 831 -291 132 -37 384 -99 445 -110 19 -3 37 -7 40 -9
3 -2 22 -7 41 -10 19 -3 60 -10 90 -16 84 -17 210 -39 255 -44 22 -3 51 -8 65
-10 51 -9 211 -29 345 -42 39 -4 84 -8 100 -10 264 -26 974 -26 1250 1 17 2
62 6 100 9 39 4 84 9 100 11 17 3 51 7 77 10 48 5 171 22 218 30 14 2 43 6 65
10 23 3 50 7 60 9 11 2 61 11 110 20 172 32 366 77 590 136 120 32 426 127
480 150 11 4 36 13 55 20 19 7 44 16 55 20 11 5 54 21 95 36 310 113 766 334
1100 532 387 230 762 502 1105 802 146 128 513 491 626 620 41 47 76 87 79 90
39 38 220 263 326 405 276 368 495 722 700 1134 216 436 376 855 504 1321 68
251 146 603 166 755 2 17 6 41 9 55 3 14 8 49 11 79 3 30 7 63 10 74 2 11 6
45 9 76 4 31 8 65 10 77 4 28 16 143 20 190 16 214 20 327 20 629 0 308 -8
563 -20 636 -2 13 -6 56 -10 94 -3 39 -7 84 -9 100 -2 17 -7 57 -10 90 -4 33
-9 71 -11 85 -3 14 -7 41 -9 60 -15 112 -58 351 -92 505 -2 11 -7 34 -10 50
-38 212 -242 878 -325 1065 -13 28 -14 30 -63 150 -71 176 -217 485 -308 650
-160 291 -303 520 -476 765 -39 55 -210 283 -227 302 -5 7 -14 18 -20 25 -66
85 -254 305 -335 393 -150 162 -436 441 -575 560 -32 28 -63 55 -69 60 -12 11
-192 160 -216 178 -8 7 -51 39 -95 72 -44 33 -82 62 -85 65 -6 7 -180 130
-270 191 -83 57 -339 217 -405 254 -27 15 -54 30 -60 35 -37 28 -395 212 -555
286 -124 57 -495 211 -525 219 -5 1 -21 7 -35 12 -30 12 -338 113 -430 141
-171 52 -533 141 -639 158 -18 3 -43 8 -55 10 -20 5 -166 31 -216 39 -21 3
-147 21 -285 40 -16 2 -57 7 -90 10 -33 3 -73 8 -90 10 -16 2 -79 7 -140 11
-60 3 -126 8 -145 11 -37 4 -718 12 -722 8z m412 -3180 c25 -9 63 -26 85 -40
84 -49 116 -98 278 -427 85 -172 259 -524 387 -783 127 -258 270 -549 318
-645 124 -252 173 -320 272 -370 42 -21 138 -44 231 -54 31 -4 67 -9 80 -12
24 -5 35 -6 134 -19 28 -3 57 -8 65 -10 8 -2 39 -7 69 -10 30 -4 63 -9 75 -11
12 -2 41 -6 66 -9 25 -3 56 -8 70 -10 36 -7 145 -22 210 -30 18 -2 164 -25
199 -30 13 -2 45 -7 70 -11 25 -3 57 -8 71 -10 14 -2 43 -7 65 -9 22 -3 101
-15 175 -26 74 -11 149 -22 165 -24 50 -7 248 -36 275 -40 14 -2 48 -7 75 -11
28 -3 57 -7 65 -9 8 -1 35 -6 60 -10 119 -20 224 -100 281 -213 32 -64 34 -72
33 -172 0 -78 -5 -113 -17 -135 -9 -16 -17 -34 -17 -39 0 -15 -64 -90 -141
-166 -43 -41 -211 -206 -376 -366 -164 -160 -341 -334 -395 -385 -500 -487
-714 -700 -734 -734 -50 -85 -72 -201 -53 -283 4 -20 10 -55 13 -77 4 -23 9
-52 11 -65 3 -14 9 -50 14 -80 5 -30 23 -136 41 -235 17 -99 33 -193 36 -210
3 -16 7 -37 9 -45 2 -8 7 -37 10 -65 4 -27 13 -81 20 -120 13 -66 17 -93 30
-175 3 -19 10 -55 15 -80 5 -25 12 -63 15 -85 3 -22 13 -78 21 -125 9 -46 18
-96 19 -110 4 -27 49 -292 60 -350 4 -19 8 -44 10 -55 1 -11 10 -63 20 -115 9
-52 16 -122 16 -155 -1 -237 -243 -426 -471 -368 -47 12 -242 108 -465 228
-89 48 -215 115 -350 185 -66 35 -194 102 -285 150 -91 48 -214 113 -275 145
-60 32 -150 79 -200 105 -49 26 -139 73 -200 105 -60 32 -123 66 -140 76 -94
55 -205 77 -303 59 -59 -11 -102 -30 -292 -131 -63 -33 -169 -89 -235 -124
-66 -34 -145 -76 -175 -92 -30 -16 -109 -58 -175 -93 -113 -58 -176 -92 -385
-203 -47 -24 -128 -67 -181 -95 -53 -28 -139 -73 -190 -100 -270 -142 -387
-201 -419 -210 -89 -28 -194 -16 -289 32 -58 30 -143 121 -170 182 -22 48 -39
129 -35 160 9 71 18 140 19 144 0 3 4 26 8 51 11 65 15 90 37 209 10 58 21
119 24 135 12 84 78 460 81 465 1 3 5 28 9 55 3 28 8 61 11 75 3 14 21 118 40
231 20 113 38 217 40 230 4 21 12 67 21 124 2 16 43 253 59 345 3 14 7 36 11
50 3 14 5 59 5 100 0 83 -23 157 -66 221 -15 20 -151 159 -303 307 -152 148
-334 325 -404 393 -464 453 -733 715 -808 789 -115 113 -154 183 -163 289 -3
39 0 68 17 147 9 44 48 106 99 158 79 81 142 105 337 131 25 3 56 8 70 10 14
2 43 7 65 10 22 2 57 8 78 11 42 7 63 10 127 18 25 3 56 8 70 11 14 3 45 7 70
10 25 3 88 12 140 20 52 8 113 17 135 20 22 3 51 8 65 10 14 2 45 7 70 10 25
4 56 8 70 10 14 2 45 7 70 10 25 3 56 8 70 10 14 2 106 16 205 30 99 14 191
28 204 30 13 2 45 7 70 10 25 4 87 13 136 20 50 8 113 17 140 21 28 3 59 8 70
10 11 2 38 7 59 10 22 2 68 18 102 34 101 49 136 97 275 378 195 396 478 968
672 1362 99 201 194 383 212 405 96 119 274 170 415 120z"/>
</g>
</svg>
